<?xml version="1.0" encoding="UTF-8" standalone="no"?>
<!-- Created with Inkscape (http://www.inkscape.org/) -->

<svg
   width="379.73242"
   height="402.13409"
   viewBox="0 0 379.73242 402.13409"
   version="1.1"
   id="svg5"
   xmlns="http://www.w3.org/2000/svg"
   xmlns:svg="http://www.w3.org/2000/svg">
  <defs
     id="defs2" />
  <g
     id="layer1"
     transform="translate(-69.865298,-50.433992)">
    <g
       id="g20608"
       transform="translate(-0.03471)">
      <path
         id="path19627"
         style="fill:none;stroke:#3e3d44;stroke-width:2.66807;stroke-linecap:round;stroke-linejoin:miter;stroke-miterlimit:4;stroke-dasharray:none;stroke-opacity:1"
         d="m 217.32493,389.18488 h 87.24888 m -43.62444,43.62444 v -87.24888 m 29.0745,-147.38663 c 0,0 -13.97707,-136.851284 158.08788,-74.30708 0,0 -26.42289,140.312 -142.65335,92.36692 m -62.04487,-39.6003 C 284.05047,82.757333 193.10913,20.334798 71.325983,68.367969 c 0,0 14.574176,148.519671 144.015747,126.485531 m 47.56176,43.00071 c 0,0 3.67656,-27.07522 -19.48996,-61.22086 C 226.1434,151.17852 193.95555,121.79439 134.20599,96.768757 M 259.03463,270.23019 c 0,0 -7.54958,-35.70551 30.78442,-72.0675 0.0679,-0.0644 0.13591,-0.12878 0.20408,-0.19318 18.52725,-17.50095 47.70394,-35.1396 93.48633,-49.00897 M 260.94937,451.23405 h 81.62579 L 369.59011,324.6576 M 260.94937,451.23405 H 179.32358 L 152.30863,324.6576 m 234.05656,-54.40836 v 54.50008 l -250.91219,-0.0766 -0.005,-54.38376 z" />
    </g>
  </g>
</svg>
