<?xml version="1.0" encoding="UTF-8" standalone="no"?>
<!-- Created with Inkscape (http://www.inkscape.org/) -->

<svg
   width="385.56445"
   height="313.77734"
   viewBox="0 0 385.56445 313.77736"
   version="1.1"
   id="svg5"
   xmlns="http://www.w3.org/2000/svg"
   xmlns:svg="http://www.w3.org/2000/svg">
  <defs
     id="defs2" />
  <g
     id="layer1"
     transform="translate(-62.568359,-88.236328)">
    <g
       id="rect858">
      <path
         style="color:#000000;fill:#000000;fill-opacity:0;stroke-width:3;-inkscape-stroke:none"
         d="m 219.95898,89.736328 c -34.56187,-1.27e-4 -62.5799,34.014842 -62.58007,75.974612 0.039,0.87406 0.0904,1.74724 0.15429,2.61914 -13.68165,1.70382 -24.21093,13.28951 -24.21093,27.44726 v 23.53907 H 91.087891 c -14.968263,0 -27.019532,12.05127 -27.019532,27.01953 v 59.26172 c 0,14.96826 12.051269,27.01757 27.019532,27.01757 h 42.234379 v 40.21094 c 0,15.33863 12.34886,27.6875 27.6875,27.6875 h 120.90625 c 15.33863,0 27.68554,-12.34887 27.68554,-27.6875 v -18.20312 l 86.67188,-112.01172 48.71289,-17.66992 -79.15821,-58.26563 -2.02929,52.17578 -53.08158,41.89846 c -1.27818,-12.67364 -1.11569,-55.73291 -1.11569,-64.97268 0,-15.17567 -12.09138,-27.40551 -27.20312,-27.66406 0.0573,-0.79983 0.1042,-1.60071 0.14062,-2.40234 -1.7e-4,-41.95977 -28.01821,-75.974746 -62.58008,-75.974612 z"
         id="path19767" />
      <path
         style="color:#000000;fill:#3e3d44;-inkscape-stroke:none"
         d="m 219.95898,88.236328 c -35.54601,-1.3e-4 -64.0799,34.847152 -64.08007,77.474612 v 0.0332 l 0.002,0.0332 c 0.0203,0.45618 0.0531,0.9115 0.0801,1.36719 -13.7185,2.39602 -24.13867,14.22459 -24.13867,28.63281 v 22.03907 H 91.087891 c -15.773369,0 -28.519532,12.74616 -28.519532,28.51953 v 59.26172 c 0,15.77336 12.746294,28.51757 28.519532,28.51757 h 40.734379 v 38.71094 c 0,16.1437 13.04379,29.1875 29.1875,29.1875 h 120.90625 c 16.14369,0 29.18554,-13.04393 29.18554,-29.1875 v -17.6914 l 86.0918,-111.26172 50.93945,-18.47852 -83.69336,-61.60351 -2.11328,54.31054 -50.25781,39.66992 c -0.50038,-6.88097 -0.78159,-18.67213 -0.88867,-30.80859 -0.11905,-13.49243 -0.0781,-26.55687 -0.0781,-31.18555 0,-15.43711 -11.96282,-27.9105 -27.12304,-28.98242 0.0191,-0.33861 0.0432,-0.67672 0.0586,-1.01562 l 0.002,-0.0352 v -0.0332 C 284.03889,123.08348 255.505,88.23619 219.95898,88.236328 Z m 0,3 c 33.57177,-1.3e-4 61.07027,33.171222 61.08008,74.453122 -0.0355,0.7729 -0.0815,1.54517 -0.13672,2.31641 l -0.11328,1.58008 1.58399,0.0273 c 14.31647,0.24494 25.72851,11.78517 25.72851,26.16406 0,4.61109 -0.0411,17.69541 0.0781,31.21094 0.11925,13.51553 0.38817,27.40024 1.04492,33.91211 l 0.27539,2.72266 55.77148,-44.02149 1.94532,-50.04101 74.62109,54.92773 -46.48437,16.86133 -87.25196,112.76172 v 18.71484 c 0,14.53366 -11.65201,26.1875 -26.18554,26.1875 H 161.00977 c -14.53355,0 -26.1875,-11.65396 -26.1875,-26.1875 v -41.7109 H 91.087891 c -14.163259,0 -25.519532,-11.35445 -25.519532,-25.51757 v -59.26172 c 0,-14.16313 11.356404,-25.51953 25.519532,-25.51953 h 43.734379 v -25.03907 c 0,-13.41402 9.94867,-24.34655 22.89648,-25.95898 l 1.41406,-0.17578 -0.10351,-1.42188 c -0.0617,-0.84199 -0.11229,-1.68509 -0.15039,-2.52929 0.009,-41.28283 27.50777,-74.455205 61.08007,-74.455082 z"
         id="path19769" />
    </g>
    <g
       id="rect7568">
      <path
         style="color:#000000;fill:#000000;fill-opacity:0;stroke-width:3.12352;-inkscape-stroke:none"
         d="m 102.75391,242.96094 c -8.720917,0 -15.742191,7.02127 -15.742191,15.74218 v 34.52735 c 0,8.72091 7.021274,15.74219 15.742191,15.74219 h 29.44726 v -66.01172 z"
         id="path19773" />
      <path
         style="color:#000000;fill:#3e3d44;-inkscape-stroke:none"
         d="m 102.75391,241.39844 c -9.559167,0 -17.304691,7.74553 -17.304691,17.30468 v 34.52735 c 0,9.55916 7.745523,17.30469 17.304691,17.30469 h 31.00976 v -69.13672 z m 0,3.125 h 27.88476 v 62.88672 h -27.88476 c -7.882656,0 -14.179691,-6.29705 -14.179691,-14.17969 v -34.52735 c 0,-7.88264 6.297034,-14.17968 14.179691,-14.17968 z"
         id="path19775" />
    </g>
    <g
       id="path8389">
      <path
         style="color:#000000;fill:#000000;fill-opacity:0;stroke-width:3;-inkscape-stroke:none"
         d="m 220.18164,110.03711 c -24.04437,0.007 -43.55506,25.17882 -43.63281,56.29297 h 85.81836 c 0.49101,0 0.93288,-0.13997 1.41217,-0.0964 -0.047,-31.14634 -19.52856,-56.19497 -43.59772,-56.19656 z"
         id="path19779" />
      <path
         style="color:#000000;fill:#3e3d44;-inkscape-stroke:none"
         d="m 220.18164,108.53711 c -12.5455,0.004 -23.87145,6.58802 -31.99023,17.0625 -8.11879,10.47448 -13.10293,24.85698 -13.14258,40.72656 l -0.004,1.50391 h 87.32227 c 0.77607,0 1.16928,-0.11334 1.27734,-0.10352 l 1.63672,0.15039 -0.002,-1.64648 c -0.024,-15.88529 -4.99356,-30.24534 -13.10547,-40.69336 -7.78457,-10.02642 -18.54228,-16.39845 -30.49219,-16.90234 v -0.0977 z m 0,3 c 11.51425,7.6e-4 21.96516,5.97659 29.62305,15.83984 7.41585,9.55152 12.05074,22.7701 12.36328,37.45313 h -83.99805 c 0.3465,-14.62933 4.98481,-27.83542 12.39258,-37.39258 7.66707,-9.8917 18.12029,-15.89704 29.61914,-15.90039 z"
         id="path19781" />
    </g>
    <g
       id="path12337">
      <path
         style="color:#000000;fill:#000000;fill-opacity:0;stroke-width:3;-inkscape-stroke:none"
         d="m 279.24294,285.47464 a 57.525505,57.525505 0 0 1 -57.5255,57.5255 57.525505,57.525505 0 0 1 -57.52551,-57.5255 57.525505,57.525505 0 0 1 57.52551,-57.52551 57.525505,57.525505 0 0 1 57.5255,57.52551 z"
         id="path19785" />
      <path
         style="color:#000000;fill:#3e3d44;-inkscape-stroke:none"
         d="m 221.7168,226.44922 c -32.58109,0 -59.0254,26.4443 -59.02539,59.02539 0,32.58109 26.4443,59.02539 59.02539,59.02539 32.58108,0 59.02538,-26.44431 59.02539,-59.02539 0,-32.58109 -26.44431,-59.02539 -59.02539,-59.02539 z m 0,3 c 30.95976,0 56.02539,25.06562 56.02539,56.02539 -10e-6,30.95976 -25.06563,56.02539 -56.02539,56.02539 -30.95977,0 -56.02539,-25.06562 -56.02539,-56.02539 -1e-5,-30.95977 25.06562,-56.02539 56.02539,-56.02539 z"
         id="path19787" />
    </g>
    <path
       style="color:#000000;fill:#3e3d44;stroke-linecap:round;-inkscape-stroke:none"
       d="m 164.20508,283.91016 a 1.5,1.5 0 0 0 -1.51367,1.48632 1.5,1.5 0 0 0 1.48632,1.51368 l 14.50977,0.1289 a 1.5,1.5 0 0 0 1.51172,-1.48633 1.5,1.5 0 0 0 -1.48633,-1.51367 z"
       id="path14442" />
    <path
       style="color:#000000;fill:#3e3d44;stroke-linecap:round;-inkscape-stroke:none"
       d="m 264.74805,283.91016 a 1.5,1.5 0 0 0 -1.51368,1.48632 1.5,1.5 0 0 0 1.48633,1.51368 l 14.50977,0.1289 a 1.5,1.5 0 0 0 1.51172,-1.48633 1.5,1.5 0 0 0 -1.48633,-1.51367 z"
       id="path17370" />
    <path
       style="color:#000000;fill:#3e3d44;stroke-linecap:round;-inkscape-stroke:none"
       d="m 221.79492,326.99219 a 1.5,1.5 0 0 0 -1.51367,1.48633 l -0.12891,14.50781 a 1.5,1.5 0 0 0 1.48828,1.51367 1.5,1.5 0 0 0 1.51172,-1.48633 l 0.12891,-14.50781 a 1.5,1.5 0 0 0 -1.48633,-1.51367 z"
       id="path17372" />
    <path
       style="color:#000000;fill:#3e3d44;stroke-linecap:round;-inkscape-stroke:none"
       d="m 221.79492,226.44922 a 1.5,1.5 0 0 0 -1.51367,1.48633 l -0.12891,14.50781 a 1.5,1.5 0 0 0 1.48828,1.51367 1.5,1.5 0 0 0 1.51172,-1.48633 l 0.12891,-14.50781 a 1.5,1.5 0 0 0 -1.48633,-1.51367 z"
       id="path17374" />
    <path
       style="color:#000000;fill:#3e3d44;stroke-linecap:round;-inkscape-stroke:none"
       d="m 251.12891,314.77734 a 1.5,1.5 0 0 0 -0.0176,2.1211 l 10.16797,10.34961 a 1.5,1.5 0 0 0 2.12109,0.0195 1.5,1.5 0 0 0 0.0176,-2.1211 L 253.25,314.79492 a 1.5,1.5 0 0 0 -2.12109,-0.0176 z"
       id="path17376" />
    <path
       style="color:#000000;fill:#3e3d44;stroke-linecap:round;-inkscape-stroke:none"
       d="m 181.09961,243.25195 a 1.5,1.5 0 0 0 -1.06445,0.42969 1.5,1.5 0 0 0 -0.0195,2.12305 l 10.16797,10.34961 a 1.5,1.5 0 0 0 2.1211,0.0176 1.5,1.5 0 0 0 0.0195,-2.12109 L 182.15626,243.7012 a 1.5,1.5 0 0 0 -1.05664,-0.44922 z"
       id="path17378" />
    <path
       style="color:#000000;fill:#3e3d44;stroke-linecap:round;-inkscape-stroke:none"
       d="m 262.45312,243.34375 a 1.5,1.5 0 0 0 -1.06445,0.42969 l -10.34961,10.16797 a 1.5,1.5 0 0 0 -0.0195,2.12109 1.5,1.5 0 0 0 2.12109,0.0195 l 10.34961,-10.16797 a 1.5,1.5 0 0 0 0.0195,-2.12109 1.5,1.5 0 0 0 -1.05665,-0.44922 z"
       id="path17380" />
    <path
       style="color:#000000;fill:#3e3d44;stroke-linecap:round;-inkscape-stroke:none"
       d="m 191.35742,314.4375 a 1.5,1.5 0 0 0 -1.06445,0.42969 l -10.34961,10.16797 a 1.5,1.5 0 0 0 -0.0176,2.12109 1.5,1.5 0 0 0 2.12109,0.0195 l 10.34961,-10.16797 a 1.5,1.5 0 0 0 0.0176,-2.12109 1.5,1.5 0 0 0 -1.05664,-0.44922 z"
       id="path17382" />
    <g
       id="path18326">
      <path
         style="color:#000000;fill:#3e3d44;stroke-width:1.39222;stroke-linecap:round;-inkscape-stroke:none"
         d="m 224.83405,285.47464 a 3.1166136,3.1166136 0 0 1 -3.11661,3.11661 3.1166136,3.1166136 0 0 1 -3.11662,-3.11661 3.1166136,3.1166136 0 0 1 3.11662,-3.11661 3.1166136,3.1166136 0 0 1 3.11661,3.11661 z"
         id="path19823" />
      <path
         style="color:#000000;fill:#3e3d44;stroke-linecap:round;-inkscape-stroke:none"
         d="m 221.7168,281.66211 c -2.09746,0 -3.8125,1.71504 -3.8125,3.8125 0,2.09746 1.71504,3.8125 3.8125,3.8125 2.09746,0 3.8125,-1.71504 3.8125,-3.8125 0,-2.09746 -1.71504,-3.8125 -3.8125,-3.8125 z m 0,1.39258 c 1.34505,0 2.42187,1.07487 2.42187,2.41992 0,1.34505 -1.07682,2.41992 -2.42187,2.41992 -1.34505,0 -2.41993,-1.07487 -2.41993,-2.41992 0,-1.34505 1.07488,-2.41992 2.41993,-2.41992 z"
         id="path19825" />
    </g>
    <path
       style="color:#000000;fill:#3e3d44;stroke-linecap:round;-inkscape-stroke:none"
       d="m 221.75391,253.58594 a 1.5,1.5 0 0 0 -1.50196,1.49609 l -0.0684,28.6543 a 1.5,1.5 0 0 0 1.4961,1.5039 1.5,1.5 0 0 0 1.5039,-1.49609 l 0.0684,-28.6543 a 1.5,1.5 0 0 0 -1.49804,-1.5039 z"
       id="path19761" />
    <path
       style="color:#000000;fill:#3e3d44;stroke-linecap:round;-inkscape-stroke:none"
       d="m 221.99609,284.36523 a 1.5,1.5 0 0 0 -1.06445,0.43164 1.5,1.5 0 0 0 -0.0156,2.1211 l 16.81054,17.05859 a 1.5,1.5 0 0 0 2.1211,0.0156 1.5,1.5 0 0 0 0.0156,-2.1211 L 223.05273,284.8125 a 1.5,1.5 0 0 0 -1.05664,-0.44727 z"
       id="path19763" />
  </g>
</svg>
